<svg id="visual" viewBox="0 0 960 540" width="960" height="540" xmlns="http://www.w3.org/2000/svg" xmlns:xlink="http://www.w3.org/1999/xlink" version="1.1"><rect x="0" y="0" width="960" height="540" fill="#001220"></rect><defs><linearGradient id="grad1_0" x1="43.8%" y1="0%" x2="100%" y2="100%"><stop offset="14.444444444444446%" stop-color="#009473" stop-opacity="1"></stop><stop offset="85.55555555555554%" stop-color="#009473" stop-opacity="1"></stop></linearGradient></defs><defs><linearGradient id="grad1_1" x1="43.8%" y1="0%" x2="100%" y2="100%"><stop offset="14.444444444444446%" stop-color="#009473" stop-opacity="1"></stop><stop offset="85.55555555555554%" stop-color="#008172" stop-opacity="1"></stop></linearGradient></defs><defs><linearGradient id="grad1_2" x1="43.8%" y1="0%" x2="100%" y2="100%"><stop offset="14.444444444444446%" stop-color="#006d6d" stop-opacity="1"></stop><stop offset="85.55555555555554%" stop-color="#008172" stop-opacity="1"></stop></linearGradient></defs><defs><linearGradient id="grad1_3" x1="43.8%" y1="0%" x2="100%" y2="100%"><stop offset="14.444444444444446%" stop-color="#006d6d" stop-opacity="1"></stop><stop offset="85.55555555555554%" stop-color="#005964" stop-opacity="1"></stop></linearGradient></defs><defs><linearGradient id="grad1_4" x1="43.8%" y1="0%" x2="100%" y2="100%"><stop offset="14.444444444444446%" stop-color="#004657" stop-opacity="1"></stop><stop offset="85.55555555555554%" stop-color="#005964" stop-opacity="1"></stop></linearGradient></defs><defs><linearGradient id="grad1_5" x1="43.8%" y1="0%" x2="100%" y2="100%"><stop offset="14.444444444444446%" stop-color="#004657" stop-opacity="1"></stop><stop offset="85.55555555555554%" stop-color="#003446" stop-opacity="1"></stop></linearGradient></defs><defs><linearGradient id="grad1_6" x1="43.8%" y1="0%" x2="100%" y2="100%"><stop offset="14.444444444444446%" stop-color="#002334" stop-opacity="1"></stop><stop offset="85.55555555555554%" stop-color="#003446" stop-opacity="1"></stop></linearGradient></defs><defs><linearGradient id="grad1_7" x1="43.8%" y1="0%" x2="100%" y2="100%"><stop offset="14.444444444444446%" stop-color="#002334" stop-opacity="1"></stop><stop offset="85.55555555555554%" stop-color="#001220" stop-opacity="1"></stop></linearGradient></defs><defs><linearGradient id="grad2_0" x1="0%" y1="0%" x2="56.3%" y2="100%"><stop offset="14.444444444444446%" stop-color="#009473" stop-opacity="1"></stop><stop offset="85.55555555555554%" stop-color="#009473" stop-opacity="1"></stop></linearGradient></defs><defs><linearGradient id="grad2_1" x1="0%" y1="0%" x2="56.3%" y2="100%"><stop offset="14.444444444444446%" stop-color="#008172" stop-opacity="1"></stop><stop offset="85.55555555555554%" stop-color="#009473" stop-opacity="1"></stop></linearGradient></defs><defs><linearGradient id="grad2_2" x1="0%" y1="0%" x2="56.3%" y2="100%"><stop offset="14.444444444444446%" stop-color="#008172" stop-opacity="1"></stop><stop offset="85.55555555555554%" stop-color="#006d6d" stop-opacity="1"></stop></linearGradient></defs><defs><linearGradient id="grad2_3" x1="0%" y1="0%" x2="56.3%" y2="100%"><stop offset="14.444444444444446%" stop-color="#005964" stop-opacity="1"></stop><stop offset="85.55555555555554%" stop-color="#006d6d" stop-opacity="1"></stop></linearGradient></defs><defs><linearGradient id="grad2_4" x1="0%" y1="0%" x2="56.3%" y2="100%"><stop offset="14.444444444444446%" stop-color="#005964" stop-opacity="1"></stop><stop offset="85.55555555555554%" stop-color="#004657" stop-opacity="1"></stop></linearGradient></defs><defs><linearGradient id="grad2_5" x1="0%" y1="0%" x2="56.3%" y2="100%"><stop offset="14.444444444444446%" stop-color="#003446" stop-opacity="1"></stop><stop offset="85.55555555555554%" stop-color="#004657" stop-opacity="1"></stop></linearGradient></defs><defs><linearGradient id="grad2_6" x1="0%" y1="0%" x2="56.3%" y2="100%"><stop offset="14.444444444444446%" stop-color="#003446" stop-opacity="1"></stop><stop offset="85.55555555555554%" stop-color="#002334" stop-opacity="1"></stop></linearGradient></defs><defs><linearGradient id="grad2_7" x1="0%" y1="0%" x2="56.3%" y2="100%"><stop offset="14.444444444444446%" stop-color="#001220" stop-opacity="1"></stop><stop offset="85.55555555555554%" stop-color="#002334" stop-opacity="1"></stop></linearGradient></defs><g transform="translate(960, 0)"><path d="M0 297C-46.7 280.7 -93.4 264.3 -139.5 241.6C-185.6 218.9 -231.1 189.8 -257.2 148.5C-283.4 107.2 -290.2 53.6 -297 0L0 0Z" fill="#011a2a"></path><path d="M0 259.9C-40.9 245.6 -81.7 231.3 -122.1 211.4C-162.4 191.5 -202.2 166.1 -225.1 129.9C-247.9 93.8 -253.9 46.9 -259.9 0L0 0Z" fill="#002b3d"></path><path d="M0 222.8C-35 210.5 -70.1 198.2 -104.6 181.2C-139.2 164.2 -173.3 142.4 -192.9 111.4C-212.5 80.4 -217.6 40.2 -222.7 0L0 0Z" fill="#003d4f"></path><path d="M0 185.6C-29.2 175.4 -58.4 165.2 -87.2 151C-116 136.8 -144.4 118.6 -160.8 92.8C-177.1 67 -181.4 33.5 -185.6 0L0 0Z" fill="#00505e"></path><path d="M0 148.5C-23.4 140.3 -46.7 132.2 -69.7 120.8C-92.8 109.5 -115.5 94.9 -128.6 74.3C-141.7 53.6 -145.1 26.8 -148.5 0L0 0Z" fill="#006369"></path><path d="M0 111.4C-17.5 105.2 -35 99.1 -52.3 90.6C-69.6 82.1 -86.6 71.2 -96.5 55.7C-106.3 40.2 -108.8 20.1 -111.4 0L0 0Z" fill="#007770"></path><path d="M0 74.3C-11.7 70.2 -23.4 66.1 -34.9 60.4C-46.4 54.7 -57.8 47.5 -64.3 37.1C-70.8 26.8 -72.5 13.4 -74.2 0L0 0Z" fill="#008a73"></path><path d="M0 37.1C-5.8 35.1 -11.7 33 -17.4 30.2C-23.2 27.4 -28.9 23.7 -32.2 18.6C-35.4 13.4 -36.3 6.7 -37.1 0L0 0Z" fill="#009473"></path></g><g transform="translate(0, 540)"><path d="M0 -297C45.4 -278.4 90.7 -259.7 137 -237.3C183.3 -214.9 230.4 -188.7 257.2 -148.5C284 -108.3 290.5 -54.2 297 0L0 0Z" fill="#011a2a"></path><path d="M0 -259.9C39.7 -243.6 79.4 -227.2 119.9 -207.6C160.3 -188 201.6 -165.1 225.1 -129.9C248.5 -94.8 254.2 -47.4 259.9 0L0 0Z" fill="#002b3d"></path><path d="M0 -222.7C34 -208.8 68.1 -194.8 102.7 -178C137.4 -161.2 172.8 -141.5 192.9 -111.4C213 -81.2 217.9 -40.6 222.8 0L0 0Z" fill="#003d4f"></path><path d="M0 -185.6C28.4 -174 56.7 -162.3 85.6 -148.3C114.5 -134.3 144 -117.9 160.8 -92.8C177.5 -67.7 181.6 -33.9 185.6 0L0 0Z" fill="#00505e"></path><path d="M0 -148.5C22.7 -139.2 45.4 -129.9 68.5 -118.6C91.6 -107.4 115.2 -94.3 128.6 -74.3C142 -54.2 145.3 -27.1 148.5 0L0 0Z" fill="#006369"></path><path d="M0 -111.4C17 -104.4 34 -97.4 51.4 -89C68.7 -80.6 86.4 -70.8 96.5 -55.7C106.5 -40.6 108.9 -20.3 111.4 0L0 0Z" fill="#007770"></path><path d="M0 -74.2C11.3 -69.6 22.7 -64.9 34.2 -59.3C45.8 -53.7 57.6 -47.2 64.3 -37.1C71 -27.1 72.6 -13.5 74.3 0L0 0Z" fill="#008a73"></path><path d="M0 -37.1C5.7 -34.8 11.3 -32.5 17.1 -29.7C22.9 -26.9 28.8 -23.6 32.2 -18.6C35.5 -13.5 36.3 -6.8 37.1 0L0 0Z" fill="#009473"></path></g></svg>