<svg id="visual" viewBox="0 0 900 600" width="900" height="600" xmlns="http://www.w3.org/2000/svg" xmlns:xlink="http://www.w3.org/1999/xlink" version="1.1"><rect width="900" height="600" fill="#001829"></rect><g><g transform="translate(431 378)"><path d="M0 -13.1L11.4 -6.6L11.4 6.6L0 13.1L-11.4 6.6L-11.4 -6.6Z" fill="none" stroke="#297EA6" stroke-width="2"></path></g><g transform="translate(609 73)"><path d="M0 -8L6.9 -4L6.9 4L0 8L-6.9 4L-6.9 -4Z" fill="none" stroke="#297EA6" stroke-width="2"></path></g><g transform="translate(33 520)"><path d="M0 -9L7.8 -4.5L7.8 4.5L0 9L-7.8 4.5L-7.8 -4.5Z" fill="none" stroke="#297EA6" stroke-width="2"></path></g><g transform="translate(723 354)"><path d="M0 -10L8.7 -5L8.7 5L0 10L-8.7 5L-8.7 -5Z" fill="none" stroke="#297EA6" stroke-width="2"></path></g><g transform="translate(748 175)"><path d="M0 -9L7.8 -4.5L7.8 4.5L0 9L-7.8 4.5L-7.8 -4.5Z" fill="none" stroke="#297EA6" stroke-width="2"></path></g><g transform="translate(330 599)"><path d="M0 -12L10.4 -6L10.4 6L0 12L-10.4 6L-10.4 -6Z" fill="none" stroke="#297EA6" stroke-width="2"></path></g><g transform="translate(355 115)"><path d="M0 -10L8.7 -5L8.7 5L0 10L-8.7 5L-8.7 -5Z" fill="none" stroke="#297EA6" stroke-width="2"></path></g><g transform="translate(713 237)"><path d="M0 -9L7.8 -4.5L7.8 4.5L0 9L-7.8 4.5L-7.8 -4.5Z" fill="none" stroke="#297EA6" stroke-width="2"></path></g><g transform="translate(89 518)"><path d="M0 -12L10.4 -6L10.4 6L0 12L-10.4 6L-10.4 -6Z" fill="none" stroke="#297EA6" stroke-width="2"></path></g><g transform="translate(241 478)"><path d="M0 -10L8.7 -5L8.7 5L0 10L-8.7 5L-8.7 -5Z" fill="none" stroke="#297EA6" stroke-width="2"></path></g><g transform="translate(671 67)"><path d="M0 -7L6.1 -3.5L6.1 3.5L0 7L-6.1 3.5L-6.1 -3.5Z" fill="none" stroke="#297EA6" stroke-width="2"></path></g><g transform="translate(467 2)"><path d="M0 -7L6.1 -3.5L6.1 3.5L0 7L-6.1 3.5L-6.1 -3.5Z" fill="none" stroke="#297EA6" stroke-width="2"></path></g><g transform="translate(445 419)"><path d="M0 -10L8.7 -5L8.7 5L0 10L-8.7 5L-8.7 -5Z" fill="none" stroke="#297EA6" stroke-width="2"></path></g><g transform="translate(260 506)"><path d="M0 -8L6.9 -4L6.9 4L0 8L-6.9 4L-6.9 -4Z" fill="none" stroke="#297EA6" stroke-width="2"></path></g><g transform="translate(734 528)"><path d="M0 -12L10.4 -6L10.4 6L0 12L-10.4 6L-10.4 -6Z" fill="none" stroke="#297EA6" stroke-width="2"></path></g><g transform="translate(686 410)"><path d="M0 -7L6.1 -3.5L6.1 3.5L0 7L-6.1 3.5L-6.1 -3.5Z" fill="none" stroke="#297EA6" stroke-width="2"></path></g><g transform="translate(857 375)"><path d="M0 -9L7.8 -4.5L7.8 4.5L0 9L-7.8 4.5L-7.8 -4.5Z" fill="none" stroke="#297EA6" stroke-width="2"></path></g><g transform="translate(608 458)"><path d="M0 -10L8.7 -5L8.7 5L0 10L-8.7 5L-8.7 -5Z" fill="none" stroke="#297EA6" stroke-width="2"></path></g><g transform="translate(441 538)"><path d="M0 -11L9.5 -5.5L9.5 5.5L0 11L-9.5 5.5L-9.5 -5.5Z" fill="none" stroke="#297EA6" stroke-width="2"></path></g><g transform="translate(207 551)"><path d="M0 -9L7.8 -4.5L7.8 4.5L0 9L-7.8 4.5L-7.8 -4.5Z" fill="none" stroke="#297EA6" stroke-width="2"></path></g><g transform="translate(607 541)"><path d="M0 -9L7.8 -4.5L7.8 4.5L0 9L-7.8 4.5L-7.8 -4.5Z" fill="none" stroke="#297EA6" stroke-width="2"></path></g><g transform="translate(673 202)"><path d="M0 -8L6.9 -4L6.9 4L0 8L-6.9 4L-6.9 -4Z" fill="none" stroke="#297EA6" stroke-width="2"></path></g><g transform="translate(665 1)"><path d="M0 -11L9.5 -5.5L9.5 5.5L0 11L-9.5 5.5L-9.5 -5.5Z" fill="none" stroke="#297EA6" stroke-width="2"></path></g><g transform="translate(79 104)"><path d="M0 -7L6.1 -3.5L6.1 3.5L0 7L-6.1 3.5L-6.1 -3.5Z" fill="none" stroke="#297EA6" stroke-width="2"></path></g><g transform="translate(889 461)"><path d="M0 -12L10.4 -6L10.4 6L0 12L-10.4 6L-10.4 -6Z" fill="none" stroke="#297EA6" stroke-width="2"></path></g><g transform="translate(870 260)"><path d="M0 -10L8.7 -5L8.7 5L0 10L-8.7 5L-8.7 -5Z" fill="none" stroke="#297EA6" stroke-width="2"></path></g><g transform="translate(49 75)"><path d="M0 -12L10.4 -6L10.4 6L0 12L-10.4 6L-10.4 -6Z" fill="none" stroke="#297EA6" stroke-width="2"></path></g><g transform="translate(310 100)"><path d="M0 -6L5.2 -3L5.2 3L0 6L-5.2 3L-5.2 -3Z" fill="none" stroke="#297EA6" stroke-width="2"></path></g><g transform="translate(510 451)"><path d="M0 -9L7.8 -4.5L7.8 4.5L0 9L-7.8 4.5L-7.8 -4.5Z" fill="none" stroke="#297EA6" stroke-width="2"></path></g><g transform="translate(442 136)"><path d="M0 -6L5.2 -3L5.2 3L0 6L-5.2 3L-5.2 -3Z" fill="none" stroke="#297EA6" stroke-width="2"></path></g><g transform="translate(588 50)"><path d="M0 -6L5.2 -3L5.2 3L0 6L-5.2 3L-5.2 -3Z" fill="none" stroke="#297EA6" stroke-width="2"></path></g><g transform="translate(698 546)"><path d="M0 -7L6.1 -3.5L6.1 3.5L0 7L-6.1 3.5L-6.1 -3.5Z" fill="none" stroke="#297EA6" stroke-width="2"></path></g><g transform="translate(247 445)"><path d="M0 -10L8.7 -5L8.7 5L0 10L-8.7 5L-8.7 -5Z" fill="none" stroke="#297EA6" stroke-width="2"></path></g><g transform="translate(494 511)"><path d="M0 -9L7.8 -4.5L7.8 4.5L0 9L-7.8 4.5L-7.8 -4.5Z" fill="none" stroke="#297EA6" stroke-width="2"></path></g><g transform="translate(579 576)"><path d="M0 -8L6.9 -4L6.9 4L0 8L-6.9 4L-6.9 -4Z" fill="none" stroke="#297EA6" stroke-width="2"></path></g><g transform="translate(572 486)"><path d="M0 -12L10.4 -6L10.4 6L0 12L-10.4 6L-10.4 -6Z" fill="none" stroke="#297EA6" stroke-width="2"></path></g><g transform="translate(882 91)"><path d="M0 -6L5.2 -3L5.2 3L0 6L-5.2 3L-5.2 -3Z" fill="none" stroke="#297EA6" stroke-width="2"></path></g><g transform="translate(301 374)"><path d="M0 -10L8.7 -5L8.7 5L0 10L-8.7 5L-8.7 -5Z" fill="none" stroke="#297EA6" stroke-width="2"></path></g><g transform="translate(302 524)"><path d="M0 -9L7.8 -4.5L7.8 4.5L0 9L-7.8 4.5L-7.8 -4.5Z" fill="none" stroke="#297EA6" stroke-width="2"></path></g><g transform="translate(261 258)"><path d="M0 -11L9.5 -5.5L9.5 5.5L0 11L-9.5 5.5L-9.5 -5.5Z" fill="none" stroke="#297EA6" stroke-width="2"></path></g><g transform="translate(333 78)"><path d="M0 -10L8.7 -5L8.7 5L0 10L-8.7 5L-8.7 -5Z" fill="none" stroke="#297EA6" stroke-width="2"></path></g><g transform="translate(669 458)"><path d="M0 -11L9.5 -5.5L9.5 5.5L0 11L-9.5 5.5L-9.5 -5.5Z" fill="none" stroke="#297EA6" stroke-width="2"></path></g><g transform="translate(111 559)"><path d="M0 -8L6.9 -4L6.9 4L0 8L-6.9 4L-6.9 -4Z" fill="none" stroke="#297EA6" stroke-width="2"></path></g><g transform="translate(501 189)"><path d="M0 -7L6.1 -3.5L6.1 3.5L0 7L-6.1 3.5L-6.1 -3.5Z" fill="none" stroke="#297EA6" stroke-width="2"></path></g><g transform="translate(468 555)"><path d="M0 -12L10.4 -6L10.4 6L0 12L-10.4 6L-10.4 -6Z" fill="none" stroke="#297EA6" stroke-width="2"></path></g><g transform="translate(563 212)"><path d="M0 -8L6.9 -4L6.9 4L0 8L-6.9 4L-6.9 -4Z" fill="none" stroke="#297EA6" stroke-width="2"></path></g><g transform="translate(145 259)"><path d="M0 -10L8.7 -5L8.7 5L0 10L-8.7 5L-8.7 -5Z" fill="none" stroke="#297EA6" stroke-width="2"></path></g><g transform="translate(177 148)"><path d="M0 -8L6.9 -4L6.9 4L0 8L-6.9 4L-6.9 -4Z" fill="none" stroke="#297EA6" stroke-width="2"></path></g><g transform="translate(329 48)"><path d="M0 -8L6.9 -4L6.9 4L0 8L-6.9 4L-6.9 -4Z" fill="none" stroke="#297EA6" stroke-width="2"></path></g><g transform="translate(529 570)"><path d="M0 -7L6.1 -3.5L6.1 3.5L0 7L-6.1 3.5L-6.1 -3.5Z" fill="none" stroke="#297EA6" stroke-width="2"></path></g><g transform="translate(590 416)"><path d="M0 -11L9.5 -5.5L9.5 5.5L0 11L-9.5 5.5L-9.5 -5.5Z" fill="none" stroke="#297EA6" stroke-width="2"></path></g><g transform="translate(118 57)"><path d="M0 -9L7.8 -4.5L7.8 4.5L0 9L-7.8 4.5L-7.8 -4.5Z" fill="none" stroke="#297EA6" stroke-width="2"></path></g><g transform="translate(6 128)"><path d="M0 -6L5.2 -3L5.2 3L0 6L-5.2 3L-5.2 -3Z" fill="none" stroke="#297EA6" stroke-width="2"></path></g><g transform="translate(639 53)"><path d="M0 -10L8.7 -5L8.7 5L0 10L-8.7 5L-8.7 -5Z" fill="none" stroke="#297EA6" stroke-width="2"></path></g><g transform="translate(231 225)"><path d="M0 -9L7.8 -4.5L7.8 4.5L0 9L-7.8 4.5L-7.8 -4.5Z" fill="none" stroke="#297EA6" stroke-width="2"></path></g><g transform="translate(847 498)"><path d="M0 -11L9.5 -5.5L9.5 5.5L0 11L-9.5 5.5L-9.5 -5.5Z" fill="none" stroke="#297EA6" stroke-width="2"></path></g><g transform="translate(852 578)"><path d="M0 -10L8.7 -5L8.7 5L0 10L-8.7 5L-8.7 -5Z" fill="none" stroke="#297EA6" stroke-width="2"></path></g><g transform="translate(418 16)"><path d="M0 -6L5.2 -3L5.2 3L0 6L-5.2 3L-5.2 -3Z" fill="none" stroke="#297EA6" stroke-width="2"></path></g><g transform="translate(829 396)"><path d="M0 -10L8.7 -5L8.7 5L0 10L-8.7 5L-8.7 -5Z" fill="none" stroke="#297EA6" stroke-width="2"></path></g><g transform="translate(663 530)"><path d="M0 -12L10.4 -6L10.4 6L0 12L-10.4 6L-10.4 -6Z" fill="none" stroke="#297EA6" stroke-width="2"></path></g><g transform="translate(369 262)"><path d="M0 -8L6.9 -4L6.9 4L0 8L-6.9 4L-6.9 -4Z" fill="none" stroke="#297EA6" stroke-width="2"></path></g><g transform="translate(36 137)"><path d="M0 -10L8.7 -5L8.7 5L0 10L-8.7 5L-8.7 -5Z" fill="none" stroke="#297EA6" stroke-width="2"></path></g><g transform="translate(827 67)"><path d="M0 -8L6.9 -4L6.9 4L0 8L-6.9 4L-6.9 -4Z" fill="none" stroke="#297EA6" stroke-width="2"></path></g><g transform="translate(66 289)"><path d="M0 -11L9.5 -5.5L9.5 5.5L0 11L-9.5 5.5L-9.5 -5.5Z" fill="none" stroke="#297EA6" stroke-width="2"></path></g><g transform="translate(94 284)"><path d="M0 -12L10.4 -6L10.4 6L0 12L-10.4 6L-10.4 -6Z" fill="none" stroke="#297EA6" stroke-width="2"></path></g><g transform="translate(232 573)"><path d="M0 -12L10.4 -6L10.4 6L0 12L-10.4 6L-10.4 -6Z" fill="none" stroke="#297EA6" stroke-width="2"></path></g><g transform="translate(283 94)"><path d="M0 -12L10.4 -6L10.4 6L0 12L-10.4 6L-10.4 -6Z" fill="none" stroke="#297EA6" stroke-width="2"></path></g><g transform="translate(6 508)"><path d="M0 -9L7.8 -4.5L7.8 4.5L0 9L-7.8 4.5L-7.8 -4.5Z" fill="none" stroke="#297EA6" stroke-width="2"></path></g><g transform="translate(59 350)"><path d="M0 -8L6.9 -4L6.9 4L0 8L-6.9 4L-6.9 -4Z" fill="none" stroke="#297EA6" stroke-width="2"></path></g><g transform="translate(843 458)"><path d="M0 -6L5.2 -3L5.2 3L0 6L-5.2 3L-5.2 -3Z" fill="none" stroke="#297EA6" stroke-width="2"></path></g><g transform="translate(243 318)"><path d="M0 -9L7.8 -4.5L7.8 4.5L0 9L-7.8 4.5L-7.8 -4.5Z" fill="none" stroke="#297EA6" stroke-width="2"></path></g><g transform="translate(112 102)"><path d="M0 -9L7.8 -4.5L7.8 4.5L0 9L-7.8 4.5L-7.8 -4.5Z" fill="none" stroke="#297EA6" stroke-width="2"></path></g><g transform="translate(516 496)"><path d="M0 -11L9.5 -5.5L9.5 5.5L0 11L-9.5 5.5L-9.5 -5.5Z" fill="none" stroke="#297EA6" stroke-width="2"></path></g><g transform="translate(843 100)"><path d="M0 -7L6.1 -3.5L6.1 3.5L0 7L-6.1 3.5L-6.1 -3.5Z" fill="none" stroke="#297EA6" stroke-width="2"></path></g></g></svg>